<svg width="17" height="22" viewBox="0 0 17 22" fill="none" xmlns="http://www.w3.org/2000/svg">
<path d="M8.39712 0.556641C6.31973 0.55906 4.32812 1.38537 2.85919 2.85431C1.39025 4.32324 0.563943 6.31485 0.561523 8.39223C0.561523 13.6904 7.85581 21.0454 8.16629 21.3559C8.22752 21.4171 8.31055 21.4515 8.39712 21.4515C8.48369 21.4515 8.56672 21.4171 8.62794 21.3559C8.93843 21.0454 16.2327 13.6904 16.2327 8.39223C16.2303 6.31485 15.404 4.32324 13.935 2.85431C12.4661 1.38537 10.4745 0.55906 8.39712 0.556641V0.556641ZM8.39712 20.6562C7.14277 19.3457 1.21449 12.9111 1.21449 8.39223C1.21449 6.48728 1.97123 4.66035 3.31823 3.31335C4.66524 1.96635 6.49217 1.20961 8.39712 1.20961C10.3021 1.20961 12.129 1.96635 13.476 3.31335C14.823 4.66035 15.5797 6.48728 15.5797 8.39223C15.5797 12.9111 9.65147 19.3457 8.39712 20.6562Z" fill="#989898" stroke="#989898" stroke-width="0.208948"/>
</svg>
